<?xml version="1.0" encoding="UTF-8"?>
<svg version="1.1" xmlns="http://www.w3.org/2000/svg" width="338" height="217">
<path d="M0 0 C1.35444466 0.00212242 1.35444466 0.00212242 2.73625183 0.00428772 C5.60935838 0.00986802 8.48238591 0.02241691 11.35546875 0.03515625 C13.30794158 0.0401738 15.26041564 0.04473626 17.21289062 0.04882812 C21.9896136 0.059831 26.76627779 0.07708207 31.54296875 0.09765625 C31.63607412 9.92987885 31.70693796 19.76199478 31.75021744 29.59457016 C31.77100034 34.16135089 31.79914571 38.72782771 31.84472656 43.29443359 C31.88851906 47.71002394 31.91217558 52.12532388 31.92247772 56.54111481 C31.92980966 58.21705947 31.94412549 59.89299012 31.96588898 61.56880951 C32.12614301 74.43231616 31.23197995 85.86189945 22.52734375 96.12890625 C15.09445199 103.5032713 6.36570905 107.44023243 -4.07189941 107.43754578 C-4.99305542 107.42206192 -5.91421143 107.40657806 -6.86328125 107.390625 C-8.31124084 107.38425774 -8.31124084 107.38425774 -9.78845215 107.37776184 C-12.84493955 107.36108722 -15.9007461 107.32345617 -18.95703125 107.28515625 C-21.040355 107.27009491 -23.12368918 107.25640905 -25.20703125 107.24414062 C-30.2906234 107.21122049 -35.37371224 107.15951641 -40.45703125 107.09765625 C-40.55021358 97.54345593 -40.62103863 87.98941499 -40.66427994 78.43485737 C-40.68504643 73.99701559 -40.71316075 69.55948749 -40.75878906 65.12182617 C-40.80264146 60.82942361 -40.82625032 56.53732042 -40.83654022 52.24471092 C-40.84386164 50.61703982 -40.85815603 48.98938283 -40.87995148 47.3618412 C-41.06731112 32.77465112 -39.38626731 20.30593094 -28.83203125 9.421875 C-20.43253478 1.58623362 -11.08631716 -0.0656928 0 0 Z " fill="#01B45E" transform="translate(212.45703125,4.90234375)"/>
<path d="M0 0 C5.63758524 -0.07477921 11.27487465 -0.1288965 16.9128418 -0.16479492 C18.82630449 -0.17977783 20.73973347 -0.20017126 22.65307617 -0.22631836 C49.76017134 -0.58718024 49.76017134 -0.58718024 60 9 C65.73768844 14.67112593 70.64894424 21.83022056 71.12025452 30.11346436 C71.11803391 30.86847229 71.11581329 31.62348022 71.11352539 32.40136719 C71.11341209 33.6922525 71.11341209 33.6922525 71.11329651 35.00921631 C71.10813522 35.92914368 71.10297394 36.84907104 71.09765625 37.796875 C71.0962413 38.74564514 71.09482635 39.69441528 71.09336853 40.67193604 C71.08777742 43.69798962 71.07522652 46.72396883 71.0625 49.75 C71.05748385 51.80338435 71.05292115 53.85676986 71.04882812 55.91015625 C71.03781089 60.94013276 71.02055233 65.97005378 71 71 C65.04096157 71.07456924 59.08219925 71.12879953 53.12280273 71.16479492 C51.09866601 71.17981245 49.07456145 71.20023261 47.05053711 71.22631836 C44.12866239 71.26301267 41.20722065 71.27979708 38.28515625 71.29296875 C37.39103531 71.30845261 36.49691437 71.32393646 35.57569885 71.33988953 C24.77254782 71.34273524 17.02793214 67.805191 9.30859375 60.37109375 C1.50340767 51.93992783 -0.16342689 42.64242162 -0.09765625 31.54296875 C-0.0962413 30.64000565 -0.09482635 29.73704254 -0.09336853 28.80671692 C-0.08778823 25.93361037 -0.07523934 23.06058284 -0.0625 20.1875 C-0.05748245 18.23502717 -0.05291999 16.28255311 -0.04882812 14.33007812 C-0.03782525 9.55335515 -0.02057418 4.77669096 0 0 Z " fill="#02B35E" transform="translate(92,41)"/>
<path d="M0 0 C4.07166495 2.90833211 7.01178079 6.03534238 8.625 10.875 C8.69556698 13.61582159 8.71836154 16.32346977 8.6875 19.0625 C8.666875 21.640625 8.64625 24.21875 8.625 26.875 C1.035 26.875 -6.555 26.875 -14.375 26.875 C-14.50720146 32.91152664 -14.50720146 32.91152664 -12.375 37.875 C-8.875 38.04166667 -8.875 38.04166667 -5.375 37.875 C-3.40677114 35.90677114 -3.71251619 32.52691291 -3.375 29.875 C-2.58996094 29.95621094 -1.80492188 30.03742188 -0.99609375 30.12109375 C5.07920035 30.70158419 5.07920035 30.70158419 10.48828125 28.4921875 C11.52286382 27.25710443 12.54851944 26.01450359 13.56640625 24.765625 C17.7399218 20.93264298 25.95433603 17.875 31.625 17.875 C31.13 14.41 31.13 14.41 30.625 10.875 C28.77774948 10.18340599 28.77774948 10.18340599 26.625 9.875 C23.31039295 11.58392499 23.31039295 11.58392499 22.9375 15 C22.834375 15.94875 22.73125 16.8975 22.625 17.875 C18.665 17.875 14.705 17.875 10.625 17.875 C10.30928667 12.61311115 10.72585653 9.32035331 13.625 4.875 C17.56627192 0.87988557 21.15518804 -1.24725411 26.8125 -1.4375 C31.8670724 -1.34694577 35.60214784 -0.21001339 39.625 2.875 C43.48120767 8.18593315 44.18757894 13.35297775 44.015625 19.75 C44.00996521 20.55993408 44.00430542 21.36986816 43.99847412 22.2043457 C43.9762902 24.76186167 43.92613203 27.31791591 43.875 29.875 C43.85491157 31.62107335 43.83666493 33.36716892 43.8203125 35.11328125 C43.77648505 39.36774075 43.70758721 43.62112357 43.625 47.875 C40.29166667 47.875 36.95833333 47.875 33.625 47.875 C32.635 48.205 31.645 48.535 30.625 48.875 C18.28115908 49.88030614 18.28115908 49.88030614 13.9375 47.125 C11.77835244 45.02420777 10.51657481 43.72803938 9.625 40.875 C9.625 39.555 9.625 38.235 9.625 36.875 C8.965 36.875 8.305 36.875 7.625 36.875 C7.5425 37.596875 7.46 38.31875 7.375 39.0625 C6.32326587 43.00650297 4.36172268 45.71313657 0.94921875 47.99609375 C-2.32561132 49.23447487 -5.25725513 49.21514227 -8.75 49.25 C-10.03648438 49.27835938 -11.32296875 49.30671875 -12.6484375 49.3359375 C-17.74291489 48.70580298 -20.82921322 46.63399875 -24.1875 42.8125 C-27.6212618 37.21004653 -26.59952389 30.40286765 -26.625 24.0625 C-26.645625 22.79083984 -26.66625 21.51917969 -26.6875 20.20898438 C-26.69265625 18.97857422 -26.6978125 17.74816406 -26.703125 16.48046875 C-26.7124707 15.35793701 -26.72181641 14.23540527 -26.73144531 13.07885742 C-26.32821372 9.45446821 -25.17407784 7.02101121 -23.375 3.875 C-22.715 3.875 -22.055 3.875 -21.375 3.875 C-21.375 3.215 -21.375 2.555 -21.375 1.875 C-14.46281075 -1.81150093 -7.50106167 -2.50035389 0 0 Z M-14.375 10.875 C-14.73797936 12.85247122 -14.73797936 12.85247122 -14.5625 15 C-14.500625 16.27875 -14.43875 17.5575 -14.375 18.875 C-10.745 18.875 -7.115 18.875 -3.375 18.875 C-2.97590144 14.1949914 -2.97590144 14.1949914 -4.5625 9.9375 C-8.36408309 7.70898578 -10.85732788 8.52988525 -14.375 10.875 Z M22.625 30.875 C20.29108797 33.65614056 20.29108797 33.65614056 21 36.5625 C21.20625 37.325625 21.4125 38.08875 21.625 38.875 C25.6350934 39.05364631 25.6350934 39.05364631 29.625 38.875 C31.83870051 37.08842243 31.83870051 37.08842243 31.8203125 34.7109375 C31.79710937 33.89882812 31.77390625 33.08671875 31.75 32.25 C31.73195313 31.43273437 31.71390625 30.61546875 31.6953125 29.7734375 C31.67210937 29.14695313 31.64890625 28.52046875 31.625 27.875 C27.86913583 27.875 25.85849228 29.01746188 22.625 30.875 Z " fill="#010101" transform="translate(67.375,142.125)"/>
<path d="M0 0 C4.29 0 8.58 0 13 0 C13 17.82 13 35.64 13 54 C19.27 54 25.54 54 32 54 C32.33 51.69 32.66 49.38 33 47 C37.60850887 40.29556655 45.43613343 37.87351157 53 36 C53.66 36 54.32 36 55 36 C54.505 32.535 54.505 32.535 54 29 C52.15274948 28.30840599 52.15274948 28.30840599 50 28 C46.68539295 29.70892499 46.68539295 29.70892499 46.3125 33.125 C46.1578125 34.548125 46.1578125 34.548125 46 36 C42.04 36 38.08 36 34 36 C33.68428667 30.73811115 34.10085653 27.44535331 37 23 C40.94127192 19.00488557 44.53018804 16.87774589 50.1875 16.6875 C55.2420724 16.77805423 58.97714784 17.91498661 63 21 C66.85620767 26.31093315 67.56257894 31.47797775 67.390625 37.875 C67.38496521 38.68493408 67.37930542 39.49486816 67.37347412 40.3293457 C67.3512902 42.88686167 67.30113203 45.44291591 67.25 48 C67.22991157 49.74607335 67.21166493 51.49216892 67.1953125 53.23828125 C67.15148505 57.49274075 67.08258721 61.74612357 67 66 C63.66666667 66 60.33333333 66 57 66 C56.01 66.33 55.02 66.66 54 67 C41.65615908 68.00530614 41.65615908 68.00530614 37.3125 65.25 C35.20865487 63.20301555 33.98049963 61.74539897 33 59 C32.67 60.98 32.34 62.96 32 65 C21.44 65 10.88 65 0 65 C0 43.55 0 22.1 0 0 Z M46 49 C43.66608797 51.78114056 43.66608797 51.78114056 44.375 54.6875 C44.58125 55.450625 44.7875 56.21375 45 57 C49.0100934 57.17864631 49.0100934 57.17864631 53 57 C55.21370051 55.21342243 55.21370051 55.21342243 55.1953125 52.8359375 C55.17210937 52.02382812 55.14890625 51.21171875 55.125 50.375 C55.10695313 49.55773437 55.08890625 48.74046875 55.0703125 47.8984375 C55.04710937 47.27195313 55.02390625 46.64546875 55 46 C51.24413583 46 49.23349228 47.14246188 46 49 Z " fill="#010101" transform="translate(187,124)"/>
<path d="M0 0 C4.06186805 2.40843106 6.58087789 4.67037283 8.5390625 9.05859375 C8.88850775 12.17663652 8.82223247 15.23881946 8.7265625 18.37109375 C8.6646875 21.23796875 8.6028125 24.10484375 8.5390625 27.05859375 C0.9490625 27.05859375 -6.6409375 27.05859375 -14.4609375 27.05859375 C-14.59313896 33.09512039 -14.59313896 33.09512039 -12.4609375 38.05859375 C-10.94165712 38.13039339 -9.41926268 38.14251382 -7.8984375 38.12109375 C-7.07214844 38.11207031 -6.24585938 38.10304687 -5.39453125 38.09375 C-4.75644531 38.08214844 -4.11835938 38.07054687 -3.4609375 38.05859375 C-3.1309375 35.41859375 -2.8009375 32.77859375 -2.4609375 30.05859375 C1.1690625 30.05859375 4.7990625 30.05859375 8.5390625 30.05859375 C8.97998047 39.90576172 8.97998047 39.90576172 5.5390625 44.05859375 C0.70959169 48.2991047 -1.80085721 49.22745349 -8.2109375 49.30859375 C-9.42265625 49.334375 -10.634375 49.36015625 -11.8828125 49.38671875 C-15.79622302 49.02784704 -18.13478163 48.11511393 -21.4609375 46.05859375 C-26.82735873 39.38682681 -26.66497583 33.00126228 -26.7109375 24.80859375 C-26.7315625 23.90496094 -26.7521875 23.00132812 -26.7734375 22.0703125 C-26.81041251 15.64590389 -26.46243505 8.50276564 -22.04394531 3.43261719 C-16.02656675 -1.79036347 -7.44923556 -2.84962821 0 0 Z M-12.7109375 10.12109375 C-14.84439663 12.08158376 -14.84439663 12.08158376 -14.7109375 15.74609375 C-14.6284375 16.83921875 -14.5459375 17.93234375 -14.4609375 19.05859375 C-10.5009375 19.05859375 -6.5409375 19.05859375 -2.4609375 19.05859375 C-1.86773846 13.37196527 -1.86773846 13.37196527 -4.2109375 10.68359375 C-7.25295988 8.48657759 -9.33513479 8.52696469 -12.7109375 10.12109375 Z " fill="#010101" transform="translate(324.4609375,141.94140625)"/>
<path d="M0 0 C3.96 0 7.92 0 12 0 C12.60544214 2.24966317 13.20935498 4.49972077 13.8125 6.75 C14.14894531 8.00296875 14.48539063 9.2559375 14.83203125 10.546875 C16.26736588 16.0193883 17.62782724 21.51130897 19 27 C21.31 18.09 23.62 9.18 26 0 C29.96 0 33.92 0 38 0 C35.33853557 11.676807 32.4267753 23.26927254 29.27319336 34.82299805 C28.79634687 36.57722308 28.32439973 38.33278669 27.85717773 40.08959961 C21.60586067 63.59446492 21.60586067 63.59446492 15.75 69.125 C11.73431206 70.40271889 8.20546567 70.18830443 4 70 C4 66.7 4 63.4 4 60 C5.98 60 7.96 60 10 60 C10.59197778 58.00852603 11.14721658 56.00611567 11.6875 54 C12.00074219 52.88625 12.31398437 51.7725 12.63671875 50.625 C13.02195339 46.78093819 12.23296085 44.72329078 10.83488464 41.19915771 C9.46981044 37.60343524 8.5102407 33.90834378 7.51953125 30.1953125 C7.30181564 29.39012177 7.08410004 28.58493103 6.85978699 27.75534058 C6.40505603 26.07014609 5.95222165 24.38443876 5.5012207 22.69824219 C4.80847831 20.10997391 4.10878352 17.52365648 3.40820312 14.9375 C2.96573719 13.29438082 2.52366555 11.6511554 2.08203125 10.0078125 C1.76804131 8.84694626 1.76804131 8.84694626 1.44770813 7.66262817 C0 2.23122611 0 2.23122611 0 0 Z " fill="#010101" transform="translate(146,142)"/>
<path d="M0 0 C3.6754817 2.83849082 4.89705835 5.71920798 6.015625 10.09375 C6.26570489 12.99180888 6.24949003 15.86642634 6.2109375 18.7734375 C6.2081076 19.58620148 6.20527771 20.39896545 6.20236206 21.23635864 C6.19123119 23.81397675 6.16614015 26.39123819 6.140625 28.96875 C6.13058601 30.72395329 6.12146177 32.47916206 6.11328125 34.234375 C6.09131515 38.52096926 6.05683478 42.8072993 6.015625 47.09375 C2.055625 47.09375 -1.904375 47.09375 -5.984375 47.09375 C-6.00943115 46.00843994 -6.0344873 44.92312988 -6.06030273 43.80493164 C-6.15421255 39.792434 -6.25447267 35.78011618 -6.35668945 31.76782227 C-6.40010073 30.02860712 -6.44177112 28.28934765 -6.48168945 26.55004883 C-6.53924268 24.05536512 -6.6029792 21.5609059 -6.66796875 19.06640625 C-6.68468124 18.28411148 -6.70139374 17.50181671 -6.71861267 16.69581604 C-6.49086231 13.09503219 -6.49086231 13.09503219 -7.984375 10.09375 C-10.294375 10.09375 -12.604375 10.09375 -14.984375 10.09375 C-15.314375 22.30375 -15.644375 34.51375 -15.984375 47.09375 C-19.944375 47.09375 -23.904375 47.09375 -27.984375 47.09375 C-27.984375 31.58375 -27.984375 16.07375 -27.984375 0.09375 C-23.984375 0.09375 -19.984375 0.09375 -15.984375 0.09375 C-11.00027168 -1.56761777 -4.89847536 -2.23709898 0 0 Z " fill="#000000" transform="translate(287.984375,141.90625)"/>
<path d="M0 0 C4.29 0 8.58 0 13 0 C13 17.82 13 35.64 13 54 C19.27 54 25.54 54 32 54 C34.60341656 56.60341656 33 61.31821299 33 65 C22.11 65 11.22 65 0 65 C0 43.55 0 22.1 0 0 Z " fill="#010101" transform="translate(6,124)"/>
<path d="M0 0 C4.05891908 2.37795259 5.51785322 6.02106872 6.859375 10.34375 C6.859375 12.32375 6.859375 14.30375 6.859375 16.34375 C2.899375 16.34375 -1.060625 16.34375 -5.140625 16.34375 C-5.470625 14.03375 -5.800625 11.72375 -6.140625 9.34375 C-9.11128009 9.68602572 -9.11128009 9.68602572 -12.140625 10.34375 C-13.7904257 13.64335141 -13.52320861 17.33502884 -13.703125 20.96875 C-13.74630859 21.77054688 -13.78949219 22.57234375 -13.83398438 23.3984375 C-13.94013957 25.3800011 -14.04089355 27.36185271 -14.140625 29.34375 C-10.510625 29.34375 -6.880625 29.34375 -3.140625 29.34375 C-3.140625 32.31375 -3.140625 35.28375 -3.140625 38.34375 C-6.770625 38.34375 -10.400625 38.34375 -14.140625 38.34375 C-14.140625 47.58375 -14.140625 56.82375 -14.140625 66.34375 C-17.770625 66.34375 -21.400625 66.34375 -25.140625 66.34375 C-25.23116726 58.88515712 -25.30447907 51.42686695 -25.34787369 43.96784019 C-25.3687061 40.50390501 -25.39694239 37.04036687 -25.44238281 33.57666016 C-25.49435085 29.59021841 -25.51360633 25.60393475 -25.53125 21.6171875 C-25.55189514 20.37947601 -25.57254028 19.14176453 -25.59381104 17.86654663 C-25.596601 7.14758458 -25.596601 7.14758458 -21.140625 2.34375 C-15.42094897 -2.21848737 -6.82761867 -2.09313857 0 0 Z " fill="#010101" transform="translate(141.140625,123.65625)"/>
<path d="M0 0 C1.35444466 0.00212242 1.35444466 0.00212242 2.73625183 0.00428772 C5.60935838 0.00986802 8.48238591 0.02241691 11.35546875 0.03515625 C13.30794158 0.0401738 15.26041564 0.04473626 17.21289062 0.04882812 C21.9896136 0.059831 26.76627779 0.07708207 31.54296875 0.09765625 C31.61271313 9.96445646 31.66590355 19.83119728 31.69840527 29.6981945 C31.71401046 34.28065623 31.73515385 38.86294835 31.76928711 43.4453125 C31.80206523 47.87384821 31.8198604 52.30222156 31.82760048 56.73086929 C31.83311105 58.4140287 31.84387125 60.09718 31.86015892 61.78026962 C31.94193184 70.58661086 31.97355853 78.80728714 28.54296875 87.09765625 C28.21296875 87.09765625 27.88296875 87.09765625 27.54296875 87.09765625 C27.65636079 84.45084721 27.78309748 81.80588107 27.91796875 79.16015625 C27.94890625 78.40541016 27.97984375 77.65066406 28.01171875 76.87304688 C28.11560025 74.9425823 28.32192489 73.01823544 28.54296875 71.09765625 C29.20296875 70.76765625 29.86296875 70.43765625 30.54296875 70.09765625 C30.54296875 47.65765625 30.54296875 25.21765625 30.54296875 2.09765625 C15.69296875 2.09765625 0.84296875 2.09765625 -14.45703125 2.09765625 C-14.45703125 1.76765625 -14.45703125 1.43765625 -14.45703125 1.09765625 C-9.64304344 -0.14786074 -4.93356238 -0.02923419 0 0 Z " fill="#1EA167" transform="translate(212.45703125,4.90234375)"/>
<path d="M0 0 C1.81951744 3.63903488 2.24916476 4.64199119 2.22705078 8.40136719 C2.22689972 9.2619574 2.22674866 10.12254761 2.22659302 11.00921631 C2.21627045 11.92914368 2.20594788 12.84907104 2.1953125 13.796875 C2.1924826 14.74564514 2.18965271 15.69441528 2.18673706 16.67193604 C2.17555448 19.69808639 2.1504533 22.7239393 2.125 25.75 C2.11496772 27.80338114 2.1058423 29.85676692 2.09765625 31.91015625 C2.07562141 36.94021854 2.04110462 41.97005886 2 47 C-3.95903843 47.07456924 -9.91780075 47.12879953 -15.87719727 47.16479492 C-17.90133399 47.17981245 -19.92543855 47.20023261 -21.94946289 47.22631836 C-24.87133761 47.26301267 -27.79277935 47.27979708 -30.71484375 47.29296875 C-31.60896469 47.30845261 -32.50308563 47.32393646 -33.42430115 47.33988953 C-39.2989219 47.34143699 -44.67007851 46.63011234 -50 44 C-50.33 43.34 -50.66 42.68 -51 42 C-49.35 42 -47.7 42 -46 42 C-46 42.66 -46 43.32 -46 44 C-40.54676644 44.92108971 -35.30951098 45.13270961 -29.78515625 45.09765625 C-29.02553589 45.09664917 -28.26591553 45.09564209 -27.48327637 45.09460449 C-24.6763353 45.0894171 -21.86941595 45.07545623 -19.0625 45.0625 C-12.771875 45.041875 -6.48125 45.02125 0 45 C0 30.15 0 15.3 0 0 Z " fill="#16A866" transform="translate(161,65)"/>
<path d="M0 0 C0.33 0.66 0.66 1.32 1 2 C1.99 2.33 2.98 2.66 4 3 C0.42539858 7.51261739 -2.87821583 11.26838177 -8 14 C-8.99 13.67 -9.98 13.34 -11 13 C-10.360625 12.71125 -9.72125 12.4225 -9.0625 12.125 C-6.84793921 11.17176549 -6.84793921 11.17176549 -6 9 C-5.34 9 -4.68 9 -4 9 C-4.0825 8.2575 -4.165 7.515 -4.25 6.75 C-3.92894816 3.21842973 -2.64734383 2.23369636 0 0 Z " fill="#0FAC64" transform="translate(234,94)"/>
<path d="M0 0 C0.33 0.99 0.66 1.98 1 3 C0.34 3.66 -0.32 4.32 -1 5 C-1.6425235 7.06874034 -1.6425235 7.06874034 -2 9 C-3.32 9 -4.64 9 -6 9 C-4.68775452 5.06326356 -3.08089673 2.77280706 0 0 Z " fill="#17A465" transform="translate(183,15)"/>
<path d="M0 0 C0 0.66 0 1.32 0 2 C-0.99 2 -1.98 2 -3 2 C-3.66 3.32 -4.32 4.64 -5 6 C-6.32 5.67 -7.64 5.34 -9 5 C-7.87926138 4.16094435 -6.75325453 3.32892169 -5.625 2.5 C-4.99851563 2.0359375 -4.37203125 1.571875 -3.7265625 1.09375 C-2 0 -2 0 0 0 Z " fill="#16A463" transform="translate(193,9)"/>
</svg>
